<svg width="64" height="64" viewBox="0 0 64 64" fill="none" xmlns="http://www.w3.org/2000/svg">
<path d="M58.9474 0H5.05263C2.26214 0 0 2.26214 0 5.05263V58.9474C0 61.7379 2.26214 64 5.05263 64H58.9474C61.7379 64 64 61.7379 64 58.9474V5.05263C64 2.26214 61.7379 0 58.9474 0Z" fill="#03A9F4"/>
<path d="M52.7284 19.1453C51.1693 19.8262 49.52 20.2786 47.8316 20.4884C49.6114 19.433 50.9419 17.7609 51.5705 15.7895C49.9047 16.7783 48.0819 17.4746 46.1811 17.8484C45.0163 16.6027 43.5036 15.7364 41.8398 15.3621C40.1759 14.9877 38.4379 15.1227 36.8519 15.7495C35.2658 16.3763 33.9051 17.4659 32.9466 18.8765C31.9882 20.2871 31.4764 21.9535 31.4779 23.6589C31.4719 24.3099 31.5383 24.9595 31.6758 25.5958C28.2946 25.4297 24.9865 24.5522 21.9676 23.0206C18.9486 21.489 16.2867 19.3378 14.1558 16.7074C13.0605 18.5786 12.7211 20.7974 13.2071 22.9105C13.6931 25.0235 14.9678 26.8712 16.7705 28.0758C15.4249 28.0395 14.1079 27.6799 12.9305 27.0274V27.12C12.9343 29.0814 13.6132 30.9817 14.8531 32.5014C16.093 34.0212 17.8183 35.0678 19.7389 35.4653C19.0121 35.6562 18.2631 35.7497 17.5116 35.7432C16.9705 35.7532 16.4298 35.7052 15.8989 35.6C16.4492 37.2868 17.5086 38.7617 18.9314 39.8218C20.3542 40.882 22.0705 41.4752 23.8442 41.52C20.8384 43.8694 17.1329 45.1456 13.3179 45.1453C12.6381 45.151 11.9587 45.1117 11.2842 45.0274C15.1742 47.5354 19.7085 48.8606 24.3368 48.8421C39.9789 48.8421 48.5305 35.8863 48.5305 24.6568C48.5305 24.2821 48.5305 23.92 48.5011 23.5579C50.1665 22.356 51.599 20.8607 52.7284 19.1453V19.1453Z" fill="white"/>
</svg>
